# xmcd CD database file
#
# Track frame offsets:
#	150
#	14247
#	33295
#	51257
#	66653
#	84424
#
# Disc length: 1346 seconds
#
# Revision: 0
# Processed by: cddbd v1.5.1PL0 Copyright (c) Steve Scherf et al.
# Submitted via: CDex 1.51
#
DISCID=51054006
DTITLE=Rachel Warwick - Maverick
DYEAR=2004
DGENRE=Country
TTITLE0=Ask Me No Questions
TTITLE1=Thank You
TTITLE2=Angel
TTITLE3=Cowboy
TTITLE4=Mistake
TTITLE5=Highway 109
EXTD=YEAR: 2004
EXTT0=
EXTT1=
EXTT2=
EXTT3=
EXTT4=
EXTT5=
PLAYORDER=
